<svg xmlns="http://www.w3.org/2000/svg" fill="none" viewBox="0 0 45 10"><defs/><path d="M4.52 4.92c.36.76.82 1.42 1.37 2 .55.56 1.1.93 1.65 1.1 0 .33-.1.6-.27.78-.17.18-.43.27-.75.27-.43 0-.91-.27-1.46-.81A8.72 8.72 0 013.64 6.3a5.96 5.96 0 01-.71-1.98c.57 0 1.05-.15 1.41-.45.38-.32.57-.76.57-1.32 0-.72-.45-1.08-1.35-1.08-.28 0-.64.04-1.05.14a52.82 52.82 0 00-.09 2.62c0 2.12.09 3.66.26 4.62-.26.1-.53.14-.82.14-.29 0-.54-.1-.76-.28A.93.93 0 01.8 8c0-.3.03-.83.11-1.58A18.32 18.32 0 00.73.85C1.81.55 2.84.41 3.82.41c1.78 0 2.67.63 2.67 1.9a2.96 2.96 0 01-1.97 2.6z"/><path d="M6.84 6.28c0 .57.09 1.03.27 1.36.19.33.5.5.93.5.43 0 .76-.15 1-.44.25-.3.38-.65.38-1.06.27 0 .5.06.7.2.2.14.3.32.3.56 0 .5-.26.92-.79 1.25-.53.33-1.08.5-1.67.5-.9 0-1.57-.25-1.98-.74-.4-.5-.6-1.23-.6-2.2 0-.96.26-1.77.8-2.43.56-.66 1.3-1 2.2-1 .63 0 1.13.15 1.5.44.39.28.58.72.58 1.32 0 .59-.27 1.04-.82 1.34-.53.3-1.19.44-1.96.44a7.6 7.6 0 01-.84-.04zm0-.95c.25.05.5.07.76.07.58 0 1.06-.1 1.46-.32a2 2 0 00.07-.46c0-.28-.1-.5-.3-.64A1.4 1.4 0 008 3.77c-.34 0-.66.11-.94.33-.14.42-.21.83-.21 1.23zM15.48 3.07c.03-.16.05-.32.05-.49 0-.78-.38-1.16-1.14-1.16-.35 0-.64.07-.88.21-.22.27-.33.58-.33.95 0 .24.1.45.3.62.22.17.47.3.78.4a13.12 13.12 0 012 .83 2.05 2.05 0 011.1 1.87c0 .84-.33 1.52-.98 2.05-.64.53-1.41.8-2.32.8-.72 0-1.34-.19-1.86-.55a1.8 1.8 0 01-.75-1.53c0-.34.1-.62.3-.84.2-.23.45-.35.73-.35.29 0 .5.04.64.1-.07.25-.1.46-.1.66 0 .43.12.77.36 1.03.25.25.59.37 1.02.37.43 0 .78-.11 1.04-.34.27-.22.4-.52.4-.88 0-.38-.15-.69-.44-.93a3.33 3.33 0 00-1.06-.57l-1.25-.46c-.41-.16-.77-.4-1.07-.7a1.73 1.73 0 01-.43-1.2c0-.76.33-1.38.97-1.88a3.59 3.59 0 013.8-.37c.44.24.67.6.67 1.1 0 .36-.12.67-.35.93-.23.24-.52.37-.88.37-.1 0-.2-.01-.32-.04z"/><path d="M17.36 1.16c.25-.12.51-.19.78-.19.26 0 .47.09.63.25.17.17.26.42.26.75s-.02.7-.06 1.11c.6 0 1.17-.08 1.71-.25.1.16.15.35.15.57 0 .2-.1.38-.3.51a.98.98 0 01-.56.2c-.19 0-.4-.03-.64-.08a7.2 7.2 0 00-.47-.08c0 .07-.03.21-.07.43l-.09.56c-.06.44-.1.92-.1 1.42 0 1.1.36 1.64 1.07 1.64.27 0 .57-.09.92-.27.1.15.15.35.15.59s-.13.42-.4.56c-.25.13-.56.2-.92.2-1.4 0-2.1-.8-2.1-2.4 0-.24.02-.66.09-1.27.07-.6.1-1.1.1-1.47-.38.02-.69.09-.92.2a.87.87 0 01-.14-.5c0-.18.06-.34.2-.46a.7.7 0 01.5-.2l.4.02.01-.25c0-.6-.07-1.13-.2-1.59z"/><path d="M26.27 3.35a12.09 12.09 0 00-.01 5.5c-.3.1-.59.15-.9.15-.3 0-.5-.09-.63-.26a1.42 1.42 0 01-.18-.78c0-.35.05-.82.16-1.4-.57 1.2-1.12 1.98-1.65 2.3-.24.14-.48.21-.74.21-.6 0-1.08-.22-1.42-.67a2.77 2.77 0 01-.5-1.7c0-1.02.28-1.91.85-2.68a2.62 2.62 0 012.21-1.16c.91 0 1.85.16 2.8.49zm-1.57.72c-.43-.13-.79-.2-1.08-.2-.6 0-1.05.14-1.35.4-.27.67-.4 1.36-.4 2.05 0 .37.05.74.16 1.12.12.38.3.56.54.56.28 0 .64-.4 1.08-1.23.44-.83.8-1.73 1.05-2.7zM28.25 8.86c-.25.1-.51.14-.8.14-.27 0-.5-.06-.68-.2a.67.67 0 01-.25-.54c0-.24.04-.68.1-1.3a9.34 9.34 0 00-.17-3.89c.27-.1.52-.14.77-.14.24 0 .46.08.63.25.19.17.28.4.28.67 0 .15-.03.36-.07.65-.05.28-.08.5-.09.64.31-.72.68-1.27 1.1-1.67.44-.41.87-.61 1.29-.61.3 0 .53.1.7.3.18.22.27.48.27.8 0 .31-.08.57-.24.77a.75.75 0 01-.6.29c-.23 0-.42-.03-.56-.08l.03-.26c0-.33-.11-.5-.34-.5-.36 0-.69.36-1 1.08-.3.7-.5 1.36-.61 1.98.04.6.12 1.14.24 1.62z"/><path d="M31.6 1.16c.25-.12.51-.19.78-.19.26 0 .47.09.63.25.17.17.25.42.25.75s-.02.7-.06 1.11c.6 0 1.18-.08 1.72-.25.1.16.14.35.14.57 0 .2-.1.38-.28.51a.98.98 0 01-.57.2c-.19 0-.4-.03-.65-.08a7.2 7.2 0 00-.46-.08l-.08.43-.08.56c-.06.44-.1.92-.1 1.42 0 1.1.36 1.64 1.07 1.64.27 0 .57-.09.91-.27.1.15.16.35.16.59s-.13.42-.4.56c-.25.13-.56.2-.92.2-1.4 0-2.11-.8-2.11-2.4 0-.24.03-.66.1-1.27.07-.6.1-1.1.1-1.47-.38.02-.69.09-.92.2a.87.87 0 01-.15-.5c0-.18.07-.34.2-.46a.7.7 0 01.51-.2l.4.02.01-.25c0-.6-.07-1.13-.2-1.59z"/><path d="M36.1 6.28c0 .57.1 1.03.28 1.36.18.33.5.5.92.5.43 0 .77-.15 1.01-.44.25-.3.37-.65.37-1.06.27 0 .51.06.71.2.2.14.3.32.3.56 0 .5-.26.92-.8 1.25-.52.33-1.08.5-1.66.5-.91 0-1.57-.25-1.98-.74-.4-.5-.61-1.23-.61-2.2 0-.96.27-1.77.81-2.43.56-.66 1.29-1 2.2-1 .62 0 1.12.15 1.5.44.38.28.58.72.58 1.32 0 .59-.28 1.04-.82 1.34-.54.3-1.2.44-1.97.44a7.6 7.6 0 01-.84-.04zm.01-.95c.24.05.5.07.76.07.58 0 1.06-.1 1.45-.32a2 2 0 00.07-.46c0-.28-.1-.5-.3-.64a1.4 1.4 0 00-.82-.21c-.35 0-.66.11-.94.33-.14.42-.22.83-.22 1.23zM41.78 8.86c-.25.1-.5.14-.79.14-.28 0-.5-.06-.68-.2a.67.67 0 01-.26-.54c0-.24.04-.68.11-1.3s.11-1.23.11-1.81c0-.6-.1-1.29-.28-2.08.26-.1.51-.14.76-.14s.46.08.64.25c.18.17.27.4.27.67 0 .15-.02.36-.07.65-.05.28-.08.5-.08.64.3-.72.68-1.27 1.1-1.67.43-.41.86-.61 1.28-.61.3 0 .54.1.71.3.18.22.27.48.27.8 0 .31-.08.57-.24.77a.75.75 0 01-.6.29c-.24 0-.42-.03-.57-.08.03-.1.04-.18.04-.26 0-.33-.12-.5-.35-.5-.35 0-.68.36-1 1.08-.3.7-.5 1.36-.6 1.98.03.6.11 1.14.23 1.62z"/></svg>
